<?xml version="1.0" encoding="UTF-8"?>
<!DOCTYPE svg PUBLIC "-//W3C//DTD SVG 1.1//EN" "http://www.w3.org/Graphics/SVG/1.1/DTD/svg11.dtd">
<svg xmlns="http://www.w3.org/2000/svg" version="1.1" width="512px" height="512px" style="shape-rendering:geometricPrecision; text-rendering:geometricPrecision; image-rendering:optimizeQuality; fill-rule:evenodd; clip-rule:evenodd" xmlns:xlink="http://www.w3.org/1999/xlink">
<g><path style="opacity:0.996" fill="#211e1e" d="M 196.5,-0.5 C 234.833,-0.5 273.167,-0.5 311.5,-0.5C 312.504,0.682751 313.338,2.01608 314,3.5C 314.5,67.1658 314.667,130.832 314.5,194.5C 378.501,194.333 442.501,194.5 506.5,195C 509.28,196.913 510.947,199.413 511.5,202.5C 511.5,205.5 511.5,208.5 511.5,211.5C 510.668,243.331 510.168,275.331 510,307.5C 508.982,311.015 506.815,313.348 503.5,314.5C 440.5,314.5 377.5,314.5 314.5,314.5C 314.5,377.5 314.5,440.5 314.5,503.5C 313.348,506.815 311.015,508.982 307.5,510C 275.331,510.168 243.331,510.668 211.5,511.5C 208.5,511.5 205.5,511.5 202.5,511.5C 199.413,510.947 196.913,509.28 195,506.5C 194.5,442.501 194.333,378.501 194.5,314.5C 130.832,314.667 67.1658,314.5 3.5,314C 2.01608,313.338 0.682751,312.504 -0.5,311.5C -0.5,273.167 -0.5,234.833 -0.5,196.5C 0.75618,196.539 1.75618,196.039 2.5,195C 66.4991,194.5 130.499,194.333 194.5,194.5C 194.333,130.499 194.5,66.4991 195,2.5C 196.039,1.75618 196.539,0.75618 196.5,-0.5 Z"/></g>
<g><path style="opacity:1" fill="#fd4e21" d="M 211.5,15.5 C 240.167,15.5 268.833,15.5 297.5,15.5C 297.007,79.9163 297.507,144.25 299,208.5C 299.903,209.701 301.069,210.535 302.5,211C 366.166,211.5 429.832,211.667 493.5,211.5C 493.5,240.167 493.5,268.833 493.5,297.5C 429.499,297.333 365.499,297.5 301.5,298C 300.333,299.167 299.167,300.333 298,301.5C 297.5,365.499 297.333,429.499 297.5,493.5C 268.833,493.5 240.167,493.5 211.5,493.5C 211.993,429.084 211.493,364.75 210,300.5C 209.097,299.299 207.931,298.465 206.5,298C 142.834,297.5 79.1675,297.333 15.5,297.5C 15.5,268.833 15.5,240.167 15.5,211.5C 78.8342,211.667 142.168,211.5 205.5,211C 208.333,210.167 210.167,208.333 211,205.5C 211.5,142.168 211.667,78.8342 211.5,15.5 Z"/></g>
<g><path style="opacity:0.583" fill="#645c3f" d="M 511.5,211.5 C 511.5,245.833 511.5,280.167 511.5,314.5C 508.833,314.5 506.167,314.5 503.5,314.5C 506.815,313.348 508.982,311.015 510,307.5C 510.168,275.331 510.668,243.331 511.5,211.5 Z"/></g>
<g><path style="opacity:0.583" fill="#645c3f" d="M 314.5,503.5 C 314.5,506.167 314.5,508.833 314.5,511.5C 280.167,511.5 245.833,511.5 211.5,511.5C 243.331,510.668 275.331,510.168 307.5,510C 311.015,508.982 313.348,506.815 314.5,503.5 Z"/></g>
</svg>
